<svg width="612" height="612" viewBox="0 0 612 612" fill="none" xmlns="http://www.w3.org/2000/svg">
<g clip-path="url(#clip0_11_2)">
<path d="M609.608 315.426C612.798 309.552 612.798 302.447 609.608 296.573C551.144 188.93 437.108 115.853 306.001 115.853C174.894 115.853 60.857 188.931 2.39299 296.573C-0.797012 302.447 -0.797012 309.552 2.39299 315.426C60.858 423.069 174.892 496.147 306 496.147C437.108 496.147 551.143 423.069 609.608 315.426ZM306 451.855C225.446 451.855 160.145 386.553 160.145 306C160.145 225.447 225.446 160.144 306 160.144C386.554 160.144 451.856 225.446 451.856 306C451.856 386.554 386.554 451.855 306 451.855Z" fill="white"/>
<rect x="648.337" y="-68" width="41" height="1176.7" transform="rotate(44.267 648.337 -68)" fill="white"/>
</g>
<defs>
<clipPath id="clip0_11_2">
<rect width="612" height="612" fill="white"/>
</clipPath>
</defs>
</svg>
