<svg width="436" height="490" viewBox="0 0 436 490" fill="none" xmlns="http://www.w3.org/2000/svg">
<path d="M218 0C208.5 0 200.8 7.7 200.8 17.2V348.4L142 289.6C135.3 282.9 124.4 282.9 117.7 289.6C111 296.3 111 307.2 117.7 313.9L205.8 402C209.1 405.3 213.5 407 217.9 407C222.3 407 226.7 405.3 230 402L318.1 313.9C324.8 307.2 324.8 296.3 318.1 289.6C311.4 282.9 300.5 282.9 293.8 289.6L235 348.4V17.1C235.1 7.6 227.5 0 218 0Z" fill="white"/>
<path d="M435.1 472.9V373.2C435.1 363.7 427.4 356 417.9 356C408.4 356 400.7 363.7 400.7 373.2V455.8H35.1999V373.2C35.1999 363.7 27.4999 356 18.0999 356C8.6999 356 0.899902 363.7 0.899902 373.2V472.9C0.899902 482.4 8.5999 490 18.0999 490H417.9C427.4 490 435.1 482.4 435.1 472.9Z" fill="white"/>
</svg>
