<svg width="612" height="382" viewBox="0 0 612 382" fill="none" xmlns="http://www.w3.org/2000/svg">
<path d="M609.608 200.426C612.798 194.552 612.798 187.447 609.608 181.573C551.144 73.93 437.108 0.853027 306.001 0.853027C174.894 0.853027 60.857 73.931 2.39299 181.573C-0.797012 187.447 -0.797012 194.552 2.39299 200.426C60.858 308.069 174.892 381.147 306 381.147C437.108 381.147 551.143 308.069 609.608 200.426ZM306 336.855C225.446 336.855 160.145 271.553 160.145 191C160.145 110.447 225.446 45.144 306 45.144C386.554 45.144 451.856 110.446 451.856 191C451.856 271.554 386.554 336.855 306 336.855Z" fill="white"/>
</svg>
